<svg xmlns="http://www.w3.org/2000/svg" width="980" height="452" viewBox="0 0 980 452" role="img"><style>text{font-family:Inter,Arial,sans-serif;fill:#1f2937}.title{font-size:18px;font-weight:700}.subtitle{font-size:12px;fill:#4b5563}.label{font-size:12px}.value{font-size:12px;font-weight:600}.axis{stroke:#d1d5db;stroke-width:1}.bar-direct{fill:#64748b}.bar-eigen{fill:#2563eb}.bar-speed{fill:#059669}</style>
<rect width="100%" height="100%" fill="#ffffff"/>
<text class="title" x="28" y="34">Kernel latency</text>
<text class="subtitle" x="28" y="56">Median latency in milliseconds. Bar length uses a log scale.</text>
<line class="axis" x1="245" y1="72" x2="790" y2="72"/>
<text class="label" x="28" y="102">Linear / direct</text>
<rect class="bar-direct" x="245" y="84" width="141.9" height="22" rx="3"/>
<text class="value" x="396.9" y="100">0.447 ms</text>
<text class="label" x="28" y="142">Linear / Eigen</text>
<rect class="bar-eigen" x="245" y="124" width="13.0" height="22" rx="3"/>
<text class="value" x="268.0" y="140">0.049 ms</text>
<text class="label" x="28" y="182">Conv1 / direct</text>
<rect class="bar-direct" x="245" y="164" width="489.3" height="22" rx="3"/>
<text class="value" x="744.3" y="180">173.362 ms</text>
<text class="label" x="28" y="222">Conv1 / im2col+Eigen</text>
<rect class="bar-eigen" x="245" y="204" width="330.3" height="22" rx="3"/>
<text class="value" x="585.3" y="220">11.333 ms</text>
<text class="label" x="28" y="262">Conv1+BN / direct</text>
<rect class="bar-direct" x="245" y="244" width="490.2" height="22" rx="3"/>
<text class="value" x="745.2" y="260">176.087 ms</text>
<text class="label" x="28" y="302">Conv1+BN / im2col+Eigen</text>
<rect class="bar-eigen" x="245" y="284" width="333.0" height="22" rx="3"/>
<text class="value" x="588.0" y="300">11.857 ms</text>
<text class="label" x="28" y="342">layer1.0 / basicblock_direct</text>
<rect class="bar-direct" x="245" y="324" width="536.9" height="22" rx="3"/>
<text class="value" x="791.9" y="340">392.441 ms</text>
<text class="label" x="28" y="382">maxpool / maxpool2d_direct</text>
<rect class="bar-direct" x="245" y="364" width="243.3" height="22" rx="3"/>
<text class="value" x="498.3" y="380">2.545 ms</text>
</svg>